<svg id="Doctor" xmlns="http://www.w3.org/2000/svg" width="104" height="120" viewBox="0 0 104 120">
  <path id="Path_995" data-name="Path 995" d="M90.976,316.775a60.1,60.1,0,0,0,51.976-29.842,59.992,59.992,0,0,0-103.952,0A60.1,60.1,0,0,0,90.976,316.775Z" transform="translate(-39 -196.799)" fill="#ebdee5"/>
  <path id="Path_996" data-name="Path 996" d="M48.453,330.7A59.683,59.683,0,0,0,39,343.072a60.238,60.238,0,0,0,9.453,12.253Z" transform="translate(-39 -252.938)" fill="#fff"/>
  <path id="Path_997" data-name="Path 997" d="M171.517,290.6v32.546a7.364,7.364,0,0,1-7.347,7.275H105.3a60.154,60.154,0,0,0,88.042-17.852A61.731,61.731,0,0,0,171.517,290.6Z" transform="translate(-89.342 -222.434)" fill="#c6bec3"/>
  <path id="Path_998" data-name="Path 998" d="M227.6,316.316a60.517,60.517,0,0,0,13.593,0V257.183a57.918,57.918,0,0,0-6.8-.383,63.611,63.611,0,0,0-6.8.383Z" transform="translate(-182.42 -196.723)" fill="#277bc0"/>
  <path id="Path_999" data-name="Path 999" d="M241.4,468.606V457H228v11.606a55.444,55.444,0,0,0,6.7.383A60.792,60.792,0,0,0,241.4,468.606Z" transform="translate(-182.725 -349.013)" fill="#607eaa"/>
  <path id="Path_1000" data-name="Path 1000" d="M166.513,151.832l-6.808-6.82v-9.524H173.32v9.524Zm16.467-34.006h5.873a5.863,5.863,0,1,0,0-11.726H182.98Zm-32.935,0h-5.873a5.863,5.863,0,1,1,0-11.726h5.873Z" transform="translate(-114.537 -81.949)" fill="#f29f18"/>
  <path id="Path_1001" data-name="Path 1001" d="M194.84,73.958a19.242,19.242,0,0,1-19.24-19.24V41.34a19.24,19.24,0,0,1,38.481,0V54.718A19.241,19.241,0,0,1,194.84,73.958Z" transform="translate(-142.864 -17.984)" fill="#f4bc62"/>
  <path id="Path_1002" data-name="Path 1002" d="M246.6,22h.024a19.483,19.483,0,0,0-2.92.239,19.288,19.288,0,0,1,16.345,19.025V54.642a19.274,19.274,0,0,1-16.321,19.049,19.746,19.746,0,0,0,2.92.239H246.6a19.242,19.242,0,0,0,19.193-19.288V41.264A19.221,19.221,0,0,0,246.6,22Z" transform="translate(-194.658 -17.908)" fill="#f29f18"/>
  <path id="Path_1003" data-name="Path 1003" d="M169.695,16.7V33.691a4.433,4.433,0,0,1-4.427,4.427H162.3V24.071A7.41,7.41,0,0,1,169.695,16.7Z" transform="translate(-132.765 -13.876)" fill="#999"/>
  <path id="Path_1004" data-name="Path 1004" d="M301.673,16.7H296.6V30.58a7.512,7.512,0,0,0,7.514,7.514h5.073V24.214a7.512,7.512,0,0,0-7.514-7.514Z" transform="translate(-234.892 -13.876)" fill="#3f3f3f"/>
  <path id="Path_1005" data-name="Path 1005" d="M296.572,16.7H296.5V30.58a7.512,7.512,0,0,0,7.514,7.514h.072V24.214a7.481,7.481,0,0,0-7.514-7.514Z" transform="translate(-234.819 -13.876)" fill="#595959"/>
  <path id="Path_1006" data-name="Path 1006" d="M196.067,4.9H214.9a2.941,2.941,0,0,1,2.943,2.943V19.235a5.719,5.719,0,0,1-5.719,5.719H193.1V7.843A2.962,2.962,0,0,1,196.067,4.9Z" transform="translate(-156.18 -4.9)" fill="#999"/>
  <path id="Path_1007" data-name="Path 1007" d="M213.843,4.9h14.6a2.941,2.941,0,0,1,2.944,2.943V19.235a5.719,5.719,0,0,1-5.719,5.719H210.9V7.843A2.941,2.941,0,0,1,213.843,4.9Zm-2.92,26.348h5.983v2.393h-5.983Zm4.786,4.786H218.1v4.547H215.71Zm10.769-4.786h5.983v2.393h-5.983Zm-1.2,4.786h2.393v4.547h-2.393Z" transform="translate(-169.717 -4.9)" fill="#595959"/>
  <path id="Path_1008" data-name="Path 1008" d="M181.376,142.571a5.873,5.873,0,0,1-5.863-5.863h2.345a3.518,3.518,0,0,0,7.036,0h2.345A5.873,5.873,0,0,1,181.376,142.571ZM202.507,125.7h2.345v2.345h-2.345Zm-44.607,0h2.345v2.345H157.9Z" transform="translate(-129.4 -96.849)" fill="#734b0b"/>
  <path id="Path_1009" data-name="Path 1009" d="M184.393,258.4c-1.891.215-3.781.526-5.624.909L170.8,277.066h8.424L170.8,287.859l8.065,28.789c1.819.383,3.661.67,5.528.885Zm13.593,59.133c1.867-.215,3.709-.5,5.528-.885L211.6,288.1l-8.448-11.271H211.6l-7.969-17.517c-1.843-.383-3.733-.694-5.648-.909v59.133Z" transform="translate(-139.213 -197.94)" fill="#fff"/>
  <path id="Path_1010" data-name="Path 1010" d="M191.9,457l3.063,10.721c1.819.383,3.661.67,5.576.885V457Zm30.7,0H213.94v11.606c1.914-.215,3.757-.526,5.576-.885Z" transform="translate(-155.264 -349.013)" fill="#ebdee5"/>
  <path id="Path_1011" data-name="Path 1011" d="M376.6,287.8v24.314h2.345v-22.95C378.179,288.685,377.414,288.231,376.6,287.8Z" transform="translate(-295.736 -220.244)" fill="#595959"/>
  <circle id="Ellipse_116" data-name="Ellipse 116" cx="6.222" cy="6.222" r="6.222" transform="translate(75.841 89.919)" fill="#ffb200"/>
  <path id="Path_1012" data-name="Path 1012" d="M113.8,296.232v8.448h2.345V294.7C115.355,295.2,114.566,295.705,113.8,296.232Z" transform="translate(-95.9 -225.477)" fill="#595959"/>
  <path id="Path_1013" data-name="Path 1013" d="M93.961,352.392h-5v-2.345h3.829v-7.73a8.472,8.472,0,1,0-16.943,0v7.73h3.829v2.345h-5a1.175,1.175,0,0,1-1.173-1.173v-8.9a10.817,10.817,0,1,1,21.633,0v8.9A1.175,1.175,0,0,1,93.961,352.392Z" transform="translate(-65.244 -253.503)" fill="#277bc0"/>
  <path id="Path_1014" data-name="Path 1014" d="M251,297h2.393v50.255H251Z" transform="translate(-200.22 -227.303)" fill="#607eaa"/>
  <path id="Path_1015" data-name="Path 1015" d="M94.4,400.9h2.345v6.222H94.4Zm9.261,0h2.345v6.222h-2.345Z" transform="translate(-81.142 -306.304)" fill="#ffb200"/>
  <path id="Path_1016" data-name="Path 1016" d="M227.6,268.7l6.8,6.82-6.8,6.772Zm13.593,0-6.8,6.82,6.8,6.82Z" transform="translate(-182.42 -205.692)" fill="#ffb200"/>
  <path id="Path_1017" data-name="Path 1017" d="M364.649,382.8a6.325,6.325,0,0,1,.311,1.938,6.21,6.21,0,0,1-6.222,6.222,6.571,6.571,0,0,1-1.939-.311,6.221,6.221,0,1,0,7.849-7.849Z" transform="translate(-280.671 -292.57)" fill="#ffb200"/>
  <path id="Path_1018" data-name="Path 1018" d="M376.7,402.6h2.345v2.345H376.7Z" transform="translate(-295.812 -307.592)" fill="#277bc0"/>
</svg>
