<svg id="Filter_Ic" xmlns="http://www.w3.org/2000/svg" width="28" height="24" viewBox="0 0 28 24">
  <path id="Fill-1" d="M12.119,12.958H2.261A2.156,2.156,0,0,0,0,14.989,2.157,2.157,0,0,0,2.261,17.02h9.858a2.157,2.157,0,0,0,2.261-2.031,2.156,2.156,0,0,0-2.261-2.031" transform="translate(0 4.434)" fill="#277bc0" opacity="0.5"/>
  <path id="Fill-4" d="M25.26,3.928A2.2,2.2,0,0,0,22.927,1.9H12.745a2.2,2.2,0,0,0-2.335,2.03,2.2,2.2,0,0,0,2.335,2.031H22.927A2.2,2.2,0,0,0,25.26,3.928" transform="translate(2.74 0.704)" fill="#277bc0" opacity="0.5"/>
  <path id="Fill-6" d="M9.43,4.632A4.674,4.674,0,0,1,4.715,9.266,4.675,4.675,0,0,1,0,4.632,4.675,4.675,0,0,1,4.715,0,4.674,4.674,0,0,1,9.43,4.632" fill="#277bc0"/>
  <path id="Fill-9" d="M22.552,15.653a4.716,4.716,0,1,1-4.715-4.634,4.674,4.674,0,0,1,4.715,4.634" transform="translate(5.448 3.714)" fill="#277bc0"/>
</svg>
