<svg xmlns="http://www.w3.org/2000/svg" width="48" height="9.5" viewBox="0 0 48 9.5">
  <g id="Group_4490" data-name="Group 4490" transform="translate(-248 -325)">
    <path id="star" d="M9.4,3.414,6.431,2.967,5.1.175a.316.316,0,0,0-.546,0L3.224,2.967.256,3.414a.3.3,0,0,0-.17.5L2.242,6.093l-.51,3.079a.3.3,0,0,0,.444.308L4.828,8.037,7.479,9.481a.3.3,0,0,0,.444-.308l-.51-3.079L9.569,3.916A.3.3,0,0,0,9.4,3.414Z" transform="translate(248 324.981)" fill="#ffc107"/>
    <path id="star-2" data-name="star" d="M9.4,3.414,6.431,2.967,5.1.175a.316.316,0,0,0-.546,0L3.224,2.967.256,3.414a.3.3,0,0,0-.17.5L2.242,6.093l-.51,3.079a.3.3,0,0,0,.444.308L4.828,8.037,7.479,9.481a.3.3,0,0,0,.444-.308l-.51-3.079L9.569,3.916A.3.3,0,0,0,9.4,3.414Z" transform="translate(267.224 324.981)" fill="#ffc107"/>
    <path id="star-3" data-name="star" d="M9.4,3.414,6.431,2.967,5.1.175a.316.316,0,0,0-.546,0L3.224,2.967.256,3.414a.3.3,0,0,0-.17.5L2.242,6.093l-.51,3.079a.3.3,0,0,0,.444.308L4.828,8.037,7.479,9.481a.3.3,0,0,0,.444-.308l-.51-3.079L9.569,3.916A.3.3,0,0,0,9.4,3.414Z" transform="translate(276.878 324.981)" fill="#ffc107"/>
    <path id="star-4" data-name="star" d="M9.4,3.414,6.431,2.967,5.1.175a.316.316,0,0,0-.546,0L3.224,2.967.256,3.414a.3.3,0,0,0-.17.5L2.242,6.093l-.51,3.079a.3.3,0,0,0,.444.308L4.828,8.037,7.479,9.481a.3.3,0,0,0,.444-.308l-.51-3.079L9.569,3.916A.3.3,0,0,0,9.4,3.414Z" transform="translate(257.612 324.981)" fill="#ffc107"/>
    <path id="star-5" data-name="star" d="M9.235,3.414,6.319,2.967,5.012.175a.308.308,0,0,0-.536,0L3.168,2.967.252,3.414a.3.3,0,0,0-.167.5L2.2,6.093,1.7,9.173a.3.3,0,0,0,.436.308L4.743,8.037,7.349,9.481a.3.3,0,0,0,.436-.308l-.5-3.079L9.4,3.916A.3.3,0,0,0,9.235,3.414Z" transform="translate(286.513 324.981)" fill="#c7c7c7" opacity="0.55"/>
  </g>
</svg>
