<svg xmlns="http://www.w3.org/2000/svg" width="64" height="64.001" viewBox="0 0 64 64.001">
  <g id="wallet" transform="translate(0 0)">
    <g id="Group_6716" data-name="Group 6716" transform="translate(0 0)">
      <path id="Path_11364" data-name="Path 11364" d="M60.207,52.365H49.928a11.637,11.637,0,1,1,0-23.273H60.207a1.461,1.461,0,0,0,1.468-1.455V23.274A5.829,5.829,0,0,0,56.269,17.5L47.836,2.912A5.841,5.841,0,0,0,39.863.784L10.954,17.456H5.877A5.852,5.852,0,0,0,0,23.274V58.183A5.852,5.852,0,0,0,5.877,64H55.8a5.852,5.852,0,0,0,5.874-5.818V53.819A1.461,1.461,0,0,0,60.207,52.365ZM49.657,11.92l3.2,5.536h-12.8ZM16.791,17.456,41.342,3.3a2.886,2.886,0,0,1,3.945,1.06l0,.005-22.7,13.093Z" transform="translate(-0.003 0)" fill="#c2c2c2"/>
      <path id="Path_11365" data-name="Path 11365" d="M313.8,234.674h-8.147a6.983,6.983,0,1,0,0,13.966H313.8a3.5,3.5,0,0,0,3.492-3.492v-6.983A3.5,3.5,0,0,0,313.8,234.674Zm-8.147,9.311a2.328,2.328,0,1,1,2.328-2.328A2.331,2.331,0,0,1,305.653,243.985Z" transform="translate(-253.291 -200.275)" fill="#c2c2c2"/>
    </g>
  </g>
</svg>
